<svg id="Layer_1" data-name="Layer 1" xmlns="http://www.w3.org/2000/svg" viewBox="0 0 61.69 17.52"><defs><style>.cls-1{fill:#803a19;fill-rule:evenodd;}</style></defs><path class="cls-1" d="M31.89,2.48a3.52,3.52,0,0,1-1,2.55,3.48,3.48,0,0,1-1-2.55,2.52,2.52,0,0,1,.24-1,.86.86,0,0,1,1.59,0,2.55,2.55,0,0,1,.25,1Zm-3.05-.21a5.19,5.19,0,0,0,1.31,3.4,12.13,12.13,0,0,1-2.83,1.5,27.27,27.27,0,0,1-3.46,1.06c-1.2.28-2.41.51-3.63.67s-2.32.27-3.28.32a4,4,0,0,1-.7-1.34,5.14,5.14,0,0,1-.2-1.35,4.51,4.51,0,0,1,.51-2.21A4.82,4.82,0,0,1,17.91,2.8a6.38,6.38,0,0,1,1.8-.92,6,6,0,0,1,1.94-.32,6.42,6.42,0,0,1,1.83.25,5,5,0,0,1,1.83,1c.23.18.43.24.59.14a.35.35,0,0,0,.17-.42A4,4,0,0,0,24.14,1.1,6.86,6.86,0,0,0,21.51.57a7.43,7.43,0,0,0-2.25.35A7.09,7.09,0,0,0,17.15,2a6.08,6.08,0,0,0-1.59,1.85,5.37,5.37,0,0,0-.62,2.66A10.88,10.88,0,0,0,15,7.88a4.82,4.82,0,0,0,.45,1.41h-1c-1.11,0-2.44-.07-4-.21a22.56,22.56,0,0,1-4.43-.85A11,11,0,0,1,2.56,6.49a3.37,3.37,0,0,1-1.45-2.8,1.8,1.8,0,0,1,.42-1.21,2.79,2.79,0,0,1,1-.78,7.18,7.18,0,0,1,1.31-.43,6.9,6.9,0,0,1,1.32-.14,9.47,9.47,0,0,1,3.46.68,6.77,6.77,0,0,1,2.76,1.88.73.73,0,0,0,.73.25c.25-.07.33-.3.24-.68A6.54,6.54,0,0,0,9,.78,12,12,0,0,0,5.19.07a9.12,9.12,0,0,0-1.7.18A5.65,5.65,0,0,0,1.8.85,4,4,0,0,0,.52,2,2.58,2.58,0,0,0,0,3.55,4.79,4.79,0,0,0,1.56,7.2,11.34,11.34,0,0,0,5.4,9.51a22.67,22.67,0,0,0,4.9,1.2,35.64,35.64,0,0,0,4.78.36h1.38A14.06,14.06,0,0,0,22,15.64a19.35,19.35,0,0,0,8.89,1.88,19.31,19.31,0,0,0,8.88-1.88,14.06,14.06,0,0,0,5.5-4.57h1.38a35.64,35.64,0,0,0,4.78-.36,22.76,22.76,0,0,0,4.91-1.2A11.39,11.39,0,0,0,60.13,7.2a4.79,4.79,0,0,0,1.56-3.65A2.52,2.52,0,0,0,61.17,2,4,4,0,0,0,59.86.85a6.43,6.43,0,0,0-1.69-.6A8.64,8.64,0,0,0,56.51.07a11.9,11.9,0,0,0-3.84.71,6.52,6.52,0,0,0-3.36,2.48c-.09.38,0,.61.24.68a.71.71,0,0,0,.72-.25,6.85,6.85,0,0,1,2.78-1.88,9.43,9.43,0,0,1,3.46-.68,6.41,6.41,0,0,1,2.62.57,2.83,2.83,0,0,1,1,.78,1.79,1.79,0,0,1,.41,1.21,3.37,3.37,0,0,1-1.45,2.8,10.85,10.85,0,0,1-3.56,1.74,22.6,22.6,0,0,1-4.42.85c-1.55.14-2.87.21-4,.21h-1a4.82,4.82,0,0,0,.45-1.41,9.24,9.24,0,0,0,.1-1.35,5.26,5.26,0,0,0-.62-2.66A5.81,5.81,0,0,0,44.54,2,7,7,0,0,0,42.43.92,7.43,7.43,0,0,0,40.18.57a6.81,6.81,0,0,0-2.62.53,4,4,0,0,0-1.94,1.46.35.35,0,0,0,.17.42c.16.1.36,0,.59-.14a5,5,0,0,1,1.83-1,6.49,6.49,0,0,1,1.84-.25,6,6,0,0,1,1.89.32,6.48,6.48,0,0,1,1.84.92,4.82,4.82,0,0,1,1.35,1.52,4.51,4.51,0,0,1,.51,2.21,5.14,5.14,0,0,1-.2,1.35,4,4,0,0,1-.7,1.34c-1-.05-2.06-.15-3.28-.32S39,8.51,37.83,8.23a28.77,28.77,0,0,1-3.49-1.06,10.49,10.49,0,0,1-2.8-1.5,5.19,5.19,0,0,0,1.31-3.4A2.23,2.23,0,0,0,32.23.6,2,2,0,0,0,30.85,0a2,2,0,0,0-1.39.6,2.23,2.23,0,0,0-.62,1.67Zm2,13.13A19.29,19.29,0,0,1,24,14.12a17.83,17.83,0,0,1-5.5-3.19A38.9,38.9,0,0,0,25.31,9.4a14.75,14.75,0,0,0,5.54-3,14.7,14.7,0,0,0,5.53,3,39.2,39.2,0,0,0,6.84,1.53,17.65,17.65,0,0,1-5.49,3.19,19.24,19.24,0,0,1-6.88,1.28Z"/></svg>