<svg data-name="Layer 1" xmlns="http://www.w3.org/2000/svg" viewBox="0 0 61.69 17.52"><path d="M31.89 2.48a3.52 3.52 0 01-1 2.55 3.48 3.48 0 01-1-2.55 2.52 2.52 0 01.24-1 .86.86 0 011.59 0 2.55 2.55 0 01.25 1zm-3.05-.21a5.19 5.19 0 001.31 3.4 12.13 12.13 0 01-2.83 1.5 27.27 27.27 0 01-3.46 1.06c-1.2.28-2.41.51-3.63.67s-2.32.27-3.28.32a4 4 0 01-.7-1.34 5.14 5.14 0 01-.2-1.35 4.51 4.51 0 01.51-2.21 4.82 4.82 0 011.35-1.52 6.38 6.38 0 011.8-.92 6 6 0 011.94-.32 6.42 6.42 0 011.83.25 5 5 0 011.83 1c.23.18.43.24.59.14a.35.35 0 00.17-.42 4 4 0 00-1.93-1.43 6.86 6.86 0 00-2.63-.53 7.43 7.43 0 00-2.25.35A7.09 7.09 0 0017.15 2a6.08 6.08 0 00-1.59 1.85 5.37 5.37 0 00-.62 2.66A10.88 10.88 0 0015 7.88a4.82 4.82 0 00.45 1.41h-1c-1.11 0-2.44-.07-4-.21a22.56 22.56 0 01-4.43-.85 11 11 0 01-3.46-1.74 3.37 3.37 0 01-1.45-2.8 1.8 1.8 0 01.42-1.21 2.79 2.79 0 011-.78 7.18 7.18 0 011.31-.43 6.9 6.9 0 011.32-.14 9.47 9.47 0 013.46.68 6.77 6.77 0 012.76 1.88.73.73 0 00.73.25c.25-.07.33-.3.24-.68A6.54 6.54 0 009 .78 12 12 0 005.19.07a9.12 9.12 0 00-1.7.18 5.65 5.65 0 00-1.69.6A4 4 0 00.52 2 2.58 2.58 0 000 3.55 4.79 4.79 0 001.56 7.2 11.34 11.34 0 005.4 9.51a22.67 22.67 0 004.9 1.2 35.64 35.64 0 004.78.36h1.38A14.06 14.06 0 0022 15.64a19.35 19.35 0 008.89 1.88 19.31 19.31 0 008.88-1.88 14.06 14.06 0 005.5-4.57h1.38a35.64 35.64 0 004.78-.36 22.76 22.76 0 004.91-1.2 11.39 11.39 0 003.79-2.31 4.79 4.79 0 001.56-3.65A2.52 2.52 0 0061.17 2 4 4 0 0059.86.85a6.43 6.43 0 00-1.69-.6 8.64 8.64 0 00-1.66-.18 11.9 11.9 0 00-3.84.71 6.52 6.52 0 00-3.36 2.48c-.09.38 0 .61.24.68a.71.71 0 00.72-.25 6.85 6.85 0 012.78-1.88 9.43 9.43 0 013.46-.68 6.41 6.41 0 012.62.57 2.83 2.83 0 011 .78 1.79 1.79 0 01.41 1.21 3.37 3.37 0 01-1.45 2.8 10.85 10.85 0 01-3.56 1.74 22.6 22.6 0 01-4.42.85c-1.55.14-2.87.21-4 .21h-1a4.82 4.82 0 00.45-1.41 9.24 9.24 0 00.1-1.35 5.26 5.26 0 00-.62-2.66A5.81 5.81 0 0044.54 2 7 7 0 0042.43.92a7.43 7.43 0 00-2.25-.35 6.81 6.81 0 00-2.62.53 4 4 0 00-1.94 1.46.35.35 0 00.17.42c.16.1.36 0 .59-.14a5 5 0 011.83-1 6.49 6.49 0 011.84-.25 6 6 0 011.89.32 6.48 6.48 0 011.84.92 4.82 4.82 0 011.35 1.52 4.51 4.51 0 01.51 2.21 5.14 5.14 0 01-.2 1.35 4 4 0 01-.7 1.34c-1-.05-2.06-.15-3.28-.32s-2.46-.42-3.63-.7a28.77 28.77 0 01-3.49-1.06 10.49 10.49 0 01-2.8-1.5 5.19 5.19 0 001.31-3.4A2.23 2.23 0 0032.23.6a2 2 0 00-1.38-.6 2 2 0 00-1.39.6 2.23 2.23 0 00-.62 1.67zm2 13.13A19.29 19.29 0 0124 14.12a17.83 17.83 0 01-5.5-3.19 38.9 38.9 0 006.81-1.53 14.75 14.75 0 005.54-3 14.7 14.7 0 005.53 3 39.2 39.2 0 006.84 1.53 17.65 17.65 0 01-5.49 3.19 19.24 19.24 0 01-6.88 1.28z" fill="#803a19" fill-rule="evenodd"/></svg>